<?xml version="1.0" standalone="no"?>
<!DOCTYPE svg PUBLIC "-//W3C//DTD SVG 20010904//EN"
 "http://www.w3.org/TR/2001/REC-SVG-20010904/DTD/svg10.dtd">
<svg version="1.0" xmlns="http://www.w3.org/2000/svg"
 width="1500.000000pt" height="1500.000000pt" viewBox="0 0 1500.000000 1500.000000"
 preserveAspectRatio="xMidYMid meet">
<metadata>
Created by potrace 1.14, written by Peter Selinger 2001-2017
</metadata>
<g transform="translate(0.000000,1500.000000) scale(0.100000,-0.100000)"
fill="#000000" stroke="none">
<path d="M0 7500 l0 -7500 7500 0 7500 0 0 7500 0 7500 -7500 0 -7500 0 0
-7500z m13000 5082 l0 -1169 -1292 -919 c-711 -505 -1653 -1175 -2093 -1488
-2943 -2094 -4345 -3091 -4355 -3094 -7 -3 -10 403 -10 1165 l0 1168 2236
1590 c1230 875 2970 2113 3868 2752 897 638 1634 1162 1639 1162 4 1 7 -525 7
-1167z m0 -4671 l0 -1169 -3865 -2748 c-2125 -1512 -3869 -2750 -3875 -2752
-7 -3 -10 370 -10 1165 l0 1168 2237 1590 c1230 875 2972 2113 3871 2753 899
639 1636 1162 1638 1162 2 0 4 -526 4 -1169z"/>
</g>
</svg>
