<?xml version="1.0" encoding="UTF-8"?>
<svg width="53px" height="67px" viewBox="0 0 53 67" version="1.1" xmlns="http://www.w3.org/2000/svg" xmlns:xlink="http://www.w3.org/1999/xlink">
    <title>award</title>
    <g id="Page-1" stroke="none" stroke-width="1" fill="none" fill-rule="evenodd">
        <g id="02-About-Final" transform="translate(-1209.000000, -1515.000000)" fill="#FFFFFF" fill-rule="nonzero">
            <g id="EXPERIENCE" transform="translate(0.000000, 1131.000000)">
                <g id="ex--4" transform="translate(1152.000000, 342.000000)">
                    <g id="oval+icon" transform="translate(8.500000, 0.000000)">
                        <g id="award" transform="translate(49.000000, 42.000000)">
                            <path d="M31.1460397,23.9147564 L31.1460397,22.8045572 L37.4693478,22.8045572 C45.4815813,22.8045572 52,16.2866468 52,8.2744132 C52,3.71167259 48.2883273,0 43.7255867,0 C42.379121,0 41.2333548,0.874440568 40.8248421,2.08524359 L11.1751577,2.08524359 C10.7666452,0.874440568 9.62087903,0 8.2744132,0 C3.71167259,0 0,3.71167259 0,8.2744132 C0,16.2866468 6.51841859,22.8045572 14.5306522,22.8045572 L20.8539603,22.8045572 L20.8539603,23.9147564 C20.8539603,25.2612221 21.7284008,26.4069883 22.9392038,26.8149929 L22.9392038,32.0433448 C22.3005217,32.6042875 21.8965821,33.4263938 21.8965821,34.3414824 C21.8965821,35.1493618 22.2116042,35.8840749 22.7242774,36.4318071 C21.9224951,40.362979 19.0684958,43.1397471 18.2900861,43.8353363 C17.3734732,44.025874 16.6829649,44.8393425 16.6829649,45.8108303 L16.6829649,47.9636513 L15.5732738,47.9636513 C14.4605343,47.9636513 13.5550996,48.8690859 13.5550996,49.9818255 L13.5550996,60.5696194 C11.1822712,61.0274178 9.38410423,63.1182505 9.38410423,65.6221687 C9.38410423,66.160755 9.82107048,66.5977213 10.3596568,66.5977213 L41.6403431,66.5977213 C42.1789294,66.5977213 42.6158956,66.160755 42.6158956,65.6221687 C42.6158956,63.1182505 40.8177288,61.0269097 38.4454085,60.5696194 L38.4454085,49.9818255 C38.4454085,48.8690859 37.5399738,47.9636513 36.4272341,47.9636513 L35.317035,47.9636513 L35.317035,45.8108303 C35.317035,44.8383264 34.6255105,44.0248578 33.7083895,43.8348283 C32.9284556,43.1412714 30.0805533,40.3807624 29.2757225,36.4318071 C29.7889038,35.884583 30.103926,35.1493618 30.103926,34.3414824 C30.103926,33.4263938 29.6994782,32.6042875 29.0613042,32.0433448 L29.0613042,26.8149929 C30.271599,26.4069883 31.1460397,25.2612221 31.1460397,23.9147564 Z M50.0488949,8.2744132 C50.0488949,14.9183326 44.8713529,20.3748217 38.3397236,20.8229662 C40.9284946,18.937914 42.6158956,15.8857556 42.6158956,12.4454086 L42.6158956,5.91276305 C42.9598796,6.04740972 43.3343495,6.12210037 43.7255867,6.12210037 C45.4134959,6.12210037 46.7863828,4.74870525 46.7863828,3.06079615 C46.7863828,2.95053842 46.7802856,2.84129682 46.7691075,2.73357956 C48.722245,3.81075218 50.0488949,5.89040664 50.0488949,8.2744132 L50.0488949,8.2744132 Z M43.7255867,1.95110512 C44.3378476,1.95110512 44.8352777,2.4490434 44.8352777,3.06079615 C44.8352777,3.6725489 44.3373394,4.17048718 43.7255867,4.17048718 C43.1138339,4.17048718 42.6158956,3.6725489 42.6158956,3.06079615 C42.6158956,2.4490434 43.1138339,1.95110512 43.7255867,1.95110512 Z M8.2744132,1.95110512 C8.88616595,1.95110512 9.38410423,2.4490434 9.38410423,3.06079615 C9.38410423,3.6725489 8.88616595,4.17048718 8.2744132,4.17048718 C7.66215238,4.17048718 7.16472216,3.6725489 7.16472216,3.06079615 C7.16472216,2.4490434 7.66215238,1.95110512 8.2744132,1.95110512 Z M1.95110512,8.2744132 C1.95110512,5.89040664 3.27775501,3.81075218 5.23140059,2.73357956 C5.21971425,2.84129682 5.21361705,2.95053842 5.21361705,3.06079615 C5.21361705,4.74870525 6.5865041,6.1215923 8.2744132,6.1215923 C8.66565049,6.1215923 9.0396123,6.04690153 9.38410423,5.91276305 L9.38410423,7.2317914 C9.38410423,7.77037771 9.82107048,8.20734396 10.3596568,8.20734396 C10.8987512,8.20734396 11.3352093,7.77037771 11.3352093,7.2317914 L11.3352093,4.03634871 L40.6647905,4.03634871 L40.6647905,12.4454086 C40.6647905,17.0818237 36.892654,20.8539603 32.2562388,20.8539603 L19.743761,20.8539603 C15.1073459,20.8539603 11.3352093,17.0818237 11.3352093,12.4454086 L11.3352093,11.4027867 C11.3352093,10.8636923 10.8987512,10.4272341 10.3596568,10.4272341 C9.82107048,10.4272341 9.38410423,10.8636923 9.38410423,11.4027867 L9.38410423,12.4454086 C9.38410423,15.8857556 11.0715054,18.937914 13.6607845,20.8229662 C7.12864714,20.3748217 1.95110512,14.9183326 1.95110512,8.2744132 Z M22.8050654,22.8045572 L29.1954427,22.8045572 L29.1954427,23.9147564 C29.1954427,24.5265092 28.6975044,25.0244474 28.0857517,25.0244474 L23.9147564,25.0244474 C23.3030037,25.0244474 22.8050654,24.5265092 22.8050654,23.9147564 L22.8050654,22.8045572 Z M24.9573782,37.4022786 L27.0426218,37.4022786 C27.1940356,37.4022786 27.3429091,37.3911004 27.4882257,37.3697602 C28.1863555,40.1734575 29.7157374,42.3836938 30.9387348,43.7926559 L21.0617732,43.7926559 C22.2842625,42.3836938 23.8136444,40.1734575 24.5117742,37.3697602 C24.657599,37.3911004 24.8059643,37.4022786 24.9573782,37.4022786 Z M28.1523128,34.3414824 C28.1523128,34.9537433 27.6543745,35.4511735 27.0426218,35.4511735 L24.9573782,35.4511735 C24.3451173,35.4511735 23.8476872,34.9532352 23.8476872,34.3414824 C23.8476872,33.7297297 24.3456255,33.2317914 24.9573782,33.2317914 L27.0426218,33.2317914 C27.6548826,33.2317914 28.1523128,33.7297297 28.1523128,34.3414824 Z M40.5123604,64.6466162 L11.4876394,64.6466162 C11.9007251,63.3601062 13.1084794,62.4272341 14.5306522,62.4272341 L37.4693478,62.4272341 C38.8915206,62.4272341 40.0992749,63.3601062 40.5123604,64.6466162 Z M32.2562388,47.9636513 C31.7176525,47.9636513 31.2806863,48.4001093 31.2806863,48.9392038 C31.2806863,49.47779 31.7176525,49.9147564 32.2562388,49.9147564 L36.426726,49.9147564 C36.4638173,49.9147564 36.4937953,49.9447342 36.4937953,49.9818255 L36.4937953,60.476129 L15.5062047,60.476129 L15.5062047,49.9818255 C15.5062047,49.9447342 15.5361826,49.9147564 15.5732738,49.9147564 L28.0852436,49.9147564 C28.624338,49.9147564 29.0607962,49.47779 29.0607962,48.9392038 C29.0607962,48.4001093 28.624338,47.9636513 28.0852436,47.9636513 L18.63407,47.9636513 L18.63407,45.8108303 C18.63407,45.774247 18.6640479,45.743761 18.7011394,45.743761 L18.7016474,45.743761 L18.7021555,45.743761 L33.2978445,45.743761 L33.2983526,45.743761 C33.3354439,45.743761 33.3659299,45.773739 33.3659299,45.8108303 L33.3659299,47.9636513 L32.2562388,47.9636513 Z M27.0426218,31.2806863 L24.9573782,31.2806863 C24.9350218,31.2806863 24.9126654,31.2817026 24.890309,31.2822106 L24.890309,26.9755526 L27.109691,26.9755526 L27.109691,31.2822106 C27.0873346,31.2817026 27.0649782,31.2806863 27.0426218,31.2806863 Z" id="Shape"></path>
                            <path d="M24.4360672,15.6403432 C23.8974809,15.6403432 23.4605147,16.0768013 23.4605147,16.6158958 C23.4605147,17.1544819 23.8974809,17.5914483 24.4360672,17.5914483 L27.5639326,17.5914483 C28.1030271,17.5914483 28.5394852,17.1544819 28.5394852,16.6158958 C28.5394852,16.0768013 28.1030271,15.6403432 27.5639326,15.6403432 L26.9755526,15.6403432 L26.9755526,9.24996576 L27.5639326,9.24996576 C28.1030271,9.24996576 28.5394852,8.81299951 28.5394852,8.2744132 C28.5394852,7.73582689 28.1030271,7.29886064 27.5639326,7.29886064 L24.4360672,7.29886064 C23.8969729,7.29886064 23.4605147,7.73582689 23.4605147,8.2744132 C23.4605147,8.81299951 23.8969729,9.24996576 24.4360672,9.24996576 L25.0244474,9.24996576 L25.0244474,15.6403432 L24.4360672,15.6403432 Z" id="Path"></path>
                        </g>
                    </g>
                </g>
            </g>
        </g>
    </g>
</svg>