<?xml version="1.0" encoding="UTF-8"?>
<svg width="65px" height="65px" viewBox="0 0 65 65" version="1.1" xmlns="http://www.w3.org/2000/svg" xmlns:xlink="http://www.w3.org/1999/xlink">
    <title>customer-review</title>
    <g id="Page-1" stroke="none" stroke-width="1" fill="none" fill-rule="evenodd">
        <g id="02-About-Final" transform="translate(-852.000000, -1516.000000)" fill="#FFFFFF" fill-rule="nonzero">
            <g id="EXPERIENCE" transform="translate(0.000000, 1131.000000)">
                <g id="ex--3" transform="translate(796.000000, 342.000000)">
                    <g id="oval+icon" transform="translate(13.500000, 0.000000)">
                        <g id="customer-review" transform="translate(43.000000, 43.000000)">
                            <path d="M42.5547104,49.4108894 C42.1315868,49.3394658 41.698119,49.3035076 41.266129,49.3035076 L37.1412893,49.3035076 L37.1412893,46.6721614 C39.5169881,45.0865561 41.0853532,42.3828011 41.0853532,39.3184797 L41.0853532,34.5853074 C41.0853532,32.9548777 40.6376008,31.3613911 39.7903684,29.9777424 L38.1757011,30.9663443 C38.84068,32.0524767 39.19238,33.3041147 39.19238,34.5853074 L39.19238,35.5778501 L38.9436285,35.1182758 C38.1865378,33.7188646 36.7280174,32.8494662 35.1369936,32.8494662 L29.3625137,32.8494662 C27.7714901,32.8494662 26.3129697,33.7188646 25.5558788,35.1182758 L25.30762,35.5778501 L25.30762,34.5853074 C25.30762,30.7569991 28.4216917,27.6429275 32.25,27.6429275 C34.0966711,27.6429275 35.8349753,28.3601196 37.1442449,29.6620005 L38.4791285,28.3192357 C36.8127406,26.6622067 34.6005773,25.7494616 32.25,25.7494616 C27.3779211,25.7494616 23.4141542,29.7132285 23.4141542,34.5853074 L23.4141542,39.3184797 C23.4141542,42.3828011 24.9830119,45.0870486 27.3587107,46.6721614 L27.3587107,49.3035076 L23.233871,49.3035076 C18.9834242,49.3035076 15.5255338,52.761398 15.5255338,57.0123374 L15.5255338,64.5630499 L17.4189998,64.5630499 L17.4189998,57.0123374 C17.4189998,53.8056612 20.0271948,51.1969735 23.233871,51.1969735 L27.4316119,51.1969735 C27.828629,53.4978006 29.837358,55.2543302 32.25,55.2543302 C34.662642,55.2543302 36.671371,53.4978006 37.0683881,51.1969735 L41.266129,51.1969735 C41.5932001,51.1969735 41.9207638,51.2240652 42.2404462,51.2782488 L42.5547104,49.4108894 Z M35.2478236,50.3630407 C35.2478236,52.016129 33.9030883,53.3608641 32.25,53.3608641 C30.5969117,53.3608641 29.2521764,52.016129 29.2521764,50.3630407 L29.2521764,47.6297311 C30.1885654,47.968624 31.1978556,48.153833 32.25,48.153833 C33.3021444,48.153833 34.3114346,47.968624 35.2478236,47.6297311 L35.2478236,50.3630407 Z M32.25,46.2608596 C28.4985337,46.2608596 25.4347049,43.2694396 25.313531,39.547528 L27.2217742,36.019199 C27.6473607,35.2320611 28.4679939,34.7429321 29.3625137,34.7429321 L35.1369936,34.7429321 C36.0320061,34.7429321 36.8526393,35.2320611 37.2782258,36.019199 L39.186469,39.5470354 C39.0648025,43.2694396 36.0009737,46.2608596 32.25,46.2608596 Z" id="Shape"></path>
                            <path d="M44.605801,50.0630613 L43.7846751,51.7688553 C45.7874932,52.7328286 47.0810002,54.7913077 47.0810002,57.0123374 L47.0810002,64.5630499 L48.9744662,64.5630499 L48.9744662,57.0123374 C48.9744662,54.0682048 47.2598057,51.340806 44.605801,50.0630613 L44.605801,50.0630613 Z" id="Path"></path>
                            <polygon id="Path" points="41.4010951 60.0190272 43.2945611 60.0190272 43.2945611 64.5630499 41.4010951 64.5630499"></polygon>
                            <polygon id="Path" points="21.2054389 60.0190272 23.0989049 60.0190272 23.0989049 64.5630499 21.2054389 64.5630499"></polygon>
                            <path d="M16.7678129,8.92253934 L14.5788008,4.48786889 L12.3897887,8.92253934 L7.49554387,9.63382063 L11.0371724,13.0862926 L10.2012693,17.9608344 L14.5788008,15.6595148 L18.9563325,17.9608344 L18.1204294,13.0862926 L21.6620578,9.63382063 L16.7678129,8.92253934 Z M16.441727,14.4999885 L14.5788008,13.5202529 L12.7158748,14.4999885 L13.0715153,12.4252543 L11.5642297,10.9558971 L13.6473377,10.6534549 L14.5788008,8.76589993 L15.5102639,10.6534549 L17.5933719,10.9558971 L16.0860864,12.4252543 L16.441727,14.4999885 Z" id="Shape"></path>
                            <path d="M35.0700032,8.92253934 L32.8809911,4.48737635 L30.6924717,8.92253934 L25.7977341,9.63382063 L29.3393627,13.0862926 L28.5034594,17.9608344 L32.8809911,15.6595148 L37.2590153,17.9608344 L36.4226196,13.0858001 L39.964248,9.63382063 L35.0700032,8.92253934 Z M34.7444098,14.4999885 L32.8809911,13.5202529 L31.018065,14.4999885 L31.3737055,12.4252543 L29.86642,10.9558971 L31.9495281,10.6534549 L32.8809911,8.76589993 L33.8124542,10.6534549 L35.8955622,10.9558971 L34.3882766,12.4252543 L34.7444098,14.4999885 Z" id="Shape"></path>
                            <path d="M49.9211992,4.48737635 L47.7321871,8.92253934 L42.8379422,9.63382063 L46.3795706,13.0858001 L45.5436675,17.9608344 L49.9211992,15.6595148 L54.2992234,17.9608344 L53.4628276,13.0858001 L57.0044561,9.63382063 L52.1102113,8.92253934 L49.9211992,4.48737635 Z M51.7841252,14.4999885 L49.9211992,13.5202529 L48.0577804,14.4999885 L48.4139136,12.4252543 L46.9066281,10.9558971 L48.9897361,10.6534549 L49.9211992,8.76589993 L50.8526623,10.6534549 L52.9357703,10.9558971 L51.4284847,12.4252543 L51.7841252,14.4999885 Z" id="Shape"></path>
                            <path d="M61.02881,0 L49.4035007,0 L49.4035007,1.89346591 L61.02881,1.89346591 C61.898701,1.89346591 62.6065341,2.601299 62.6065341,3.47119001 L62.6065341,19.8799143 C62.6065341,20.7502979 61.898701,21.458131 61.02881,21.458131 L18.0499908,21.458131 L18.0499908,28.1507744 L8.56788392,21.458131 L3.47119001,21.458131 C2.601299,21.458131 1.89346591,20.7502979 1.89346591,19.8799143 L1.89346591,11.6341757 L3.58396922e-15,11.6341757 L3.58396922e-15,19.8799143 C3.58396922e-15,21.7940684 1.5570358,23.3511044 3.47119001,23.3511044 L7.96743267,23.3511044 L19.9434567,31.805203 L19.9434567,23.3511044 L61.02881,23.3511044 C62.9429642,23.3511044 64.5,21.7940684 64.5,19.8799143 L64.5,3.47119001 C64.5,1.5570358 62.9429642,0 61.02881,0 Z" id="Path"></path>
                            <path d="M1.89346591,3.47119001 C1.89346591,2.601299 2.601299,1.89346591 3.47119001,1.89346591 L47.5105274,1.89346591 L47.5105274,0 L3.47119001,0 C1.5570358,0 0,1.5570358 0,3.47119001 L0,9.7407098 L1.89346591,9.7407098 L1.89346591,3.47119001 Z" id="Path"></path>
                            <path d="M19.3119731,57.0123374 L21.2054389,57.0123374 C21.2054389,55.893695 22.1152286,54.9834128 23.233871,54.9834128 L23.233871,53.0904394 C21.071458,53.0904394 19.3119731,54.8499244 19.3119731,57.0123374 Z" id="Path"></path>
                            <polygon id="Path" points="60.5869685 8.52010398 60.5869685 3.78693182 55.8537963 3.78693182 55.8537963 5.67990518 58.6935026 5.67990518 58.6935026 8.52010398"></polygon>
                            <polygon id="Path" points="3.78693182 14.7049005 3.78693182 19.4385654 8.52010398 19.4385654 8.52010398 17.5450995 5.67990518 17.5450995 5.67990518 14.7049005"></polygon>
                            <polygon id="Path" points="27.5168278 60.3347691 29.4098011 60.3347691 29.4098011 62.2277424 27.5168278 62.2277424"></polygon>
                            <polygon id="Path" points="31.3032671 60.3347691 33.1967329 60.3347691 33.1967329 62.2277424 31.3032671 62.2277424"></polygon>
                            <polygon id="Path" points="35.0901989 60.3347691 36.9831722 60.3347691 36.9831722 62.2277424 35.0901989 62.2277424"></polygon>
                        </g>
                    </g>
                </g>
            </g>
        </g>
    </g>
</svg>