<?xml version="1.0" encoding="UTF-8"?>
<svg width="55px" height="68px" viewBox="0 0 55 68" version="1.1" xmlns="http://www.w3.org/2000/svg" xmlns:xlink="http://www.w3.org/1999/xlink">
    <title>deal</title>
    <g id="Page-1" stroke="none" stroke-width="1" fill="none" fill-rule="evenodd">
        <g id="02-About-Final" transform="translate(-515.000000, -1514.000000)" fill="#FFFFFF" fill-rule="nonzero">
            <g id="EXPERIENCE" transform="translate(0.000000, 1131.000000)">
                <g id="ex--2" transform="translate(467.000000, 342.000000)">
                    <g id="deal" transform="translate(48.000000, 41.000000)">
                        <path d="M54.3437957,9.60153484 L27.8359724,0.0587290288 C27.6186485,-0.0195763429 27.3812192,-0.0195763429 27.1638954,0.0587290288 L0.655939761,9.60153484 C0.262296541,9.74319878 -3.75941304e-15,10.1166043 -3.75941304e-15,10.5349825 L-3.75941304e-15,38.1031029 C-3.75941304e-15,43.3813082 1.44957528,48.2320085 4.30851499,52.5202858 C6.58109031,55.9290827 9.7406856,58.9823308 13.6996041,61.5952435 C20.3951102,66.0142061 26.9910151,67.6295189 27.268523,67.6961843 C27.344712,67.7144379 27.422356,67.7235647 27.5,67.7235647 C27.577644,67.7235647 27.6554203,67.7144379 27.731477,67.6961843 C28.0089849,67.6295189 34.6048898,66.0142061 41.3003959,61.5952435 C45.2593144,58.9823308 48.4189097,55.9290827 50.691485,52.5202858 C53.5504247,48.2320085 55,43.3813082 55,38.1031029 L55,10.5349825 C55,10.1166043 54.7374389,9.74333106 54.3437957,9.60153484 Z M53.0157789,38.1031029 C53.0157789,42.9720568 51.6841908,47.4435316 49.0579186,51.3937202 C46.9410281,54.5777859 43.979048,57.4424133 40.2543842,59.9083712 C34.5292298,63.6986422 28.7184951,65.3806204 27.4998677,65.7069369 C26.2813727,65.3806204 20.4705056,63.6986422 14.7453512,59.9083712 C11.0206874,57.4424133 8.05883966,54.5777859 5.9418169,51.3937202 C3.31567695,47.4436639 1.98395654,42.9720568 1.98395654,38.1031029 L1.98395654,11.2321913 L27.4998677,2.04652147 L53.0157789,11.2321913 L53.0157789,38.1031029 L53.0157789,38.1031029 Z" id="Shape"></path>
                        <path d="M27.1638954,4.56644653 L4.89726027,12.5824299 C4.50361705,12.7240938 4.24132051,13.0974993 4.24132051,13.5158775 L4.24132051,38.1032351 C4.24132051,41.6699655 5.05281284,45.0349801 6.65331114,48.1048946 C6.83015959,48.4441738 7.17592014,48.6386145 7.53384976,48.6386145 C7.68834414,48.6386145 7.84521943,48.6023718 7.99164518,48.5259182 C8.4774824,48.2726162 8.66597083,47.6735537 8.41266883,47.1877164 C6.961374,44.4037753 6.22540932,41.3473526 6.22540932,38.1031029 L6.22540932,30.9708327 L6.41495594,30.7812861 L8.13780639,32.5041365 C9.37693599,33.7431339 10.3248014,35.2768345 10.8788912,36.9391041 L11.2179059,37.956148 C11.8688193,39.9092851 12.9824222,41.7111022 14.4382143,43.1668943 L14.6002482,43.3289283 C14.1306805,44.3290413 14.1931132,45.5216109 14.8375452,46.4163027 C15.366371,47.1505478 16.181567,47.6129728 17.0744069,47.6851936 C17.1109142,47.6881036 17.1474214,47.6904846 17.1837964,47.6920718 C17.2173936,48.4548878 17.5303505,49.1671757 18.0737263,49.7106838 C18.6335039,50.2704614 19.3587545,50.5666197 20.0935287,50.5991587 C20.1260678,51.333933 20.4220939,52.0590513 20.9820037,52.6190934 C21.5577863,53.194876 22.32338,53.5119334 23.1375178,53.5119334 C23.6914754,53.5119334 24.2212271,53.3619363 24.6857684,53.0868093 C24.8343105,53.4456648 25.0532217,53.782034 25.3443536,54.0732983 L25.6156447,54.3445893 C26.2099455,54.9387578 26.9906183,55.2359743 27.7712911,55.2359743 C28.5518316,55.2359743 29.3325044,54.9387578 29.9268052,54.3445893 L29.9268052,54.3444571 C30.2975652,53.9738293 30.5592004,53.5237057 30.6998062,53.0333712 C30.9590604,53.102682 31.2250606,53.1401151 31.4917221,53.1401151 C32.272395,53.1401151 33.0530678,52.8428986 33.6473685,52.2487302 L33.6473685,52.2485979 C34.1150844,51.7807498 34.3958991,51.1971631 34.4955003,50.5893706 C34.587033,50.5975715 34.6788301,50.6024656 34.7706273,50.6024656 C35.5513001,50.6024656 36.3319729,50.3052491 36.9262737,49.7110806 C37.4703108,49.1670434 37.7796964,48.453036 37.8126323,47.6890296 C38.5765065,47.6560937 39.2905139,47.3467081 39.834551,46.8026709 C40.4103336,46.2267561 40.727391,45.4612946 40.727391,44.6470246 C40.727391,44.1760019 40.6181339,43.7227037 40.4172118,43.3116005 L40.5615212,43.1672912 C42.0173133,41.7114991 43.1309162,39.9096819 43.7819619,37.9564126 L44.1209765,36.9395009 C44.6750664,35.277099 45.6229317,33.7433984 46.8620613,32.5044011 L48.5849118,30.7815506 L48.7744584,30.9710972 L48.7744584,38.1033674 C48.7744584,45.4042852 45.1677818,51.5191146 38.0546911,56.2778855 C33.8164129,59.1132806 29.4448039,60.6779331 27.4961641,61.2899583 C24.5714849,60.374103 16.0516753,57.2589512 10.7541582,50.7324895 C10.4087944,50.3071009 9.78407101,50.242155 9.35868237,50.5873865 C8.93329373,50.9326179 8.86834789,51.5574736 9.21357934,51.9828623 C14.8938933,58.9810081 23.690814,62.2129565 27.2092649,63.2777508 C27.3029138,63.3060571 27.3997374,63.3202103 27.4965609,63.3202103 C27.5937813,63.3202103 27.6910016,63.3059248 27.7850474,63.277354 C29.6446677,62.7124178 34.4752626,61.0596718 39.1578445,57.9270601 C46.8554477,52.7772914 50.7585472,46.1077108 50.7585472,38.1034997 L50.7585472,13.5157452 C50.7585472,13.0973671 50.4961184,12.7240938 50.1026075,12.5822976 L39.4995046,8.76517527 C38.983906,8.57972911 38.415663,8.847052 38.2300846,9.36265055 C38.0445061,9.87798455 38.3119613,10.4463599 38.8274276,10.6320706 L41.64695,11.6471304 L36.9775954,16.3166173 C36.595989,16.6982237 36.3858079,17.2054891 36.3858079,17.7451612 C36.3858079,18.2847011 36.595989,18.7920988 36.9775954,19.1738374 L37.003124,19.1993661 L35.4990524,20.7033054 C34.1873052,22.0151849 32.450037,22.8551158 30.6070831,23.0683392 L28.3149314,23.333678 C27.7706297,23.3967721 27.3805579,23.8889584 27.4435196,24.4331278 C27.5019841,24.9386736 27.9309441,25.3112855 28.4277599,25.3112855 C28.4658544,25.3112855 28.5043458,25.3090369 28.5431016,25.3045396 L30.8352533,25.0392008 C33.1206591,24.7747879 35.2752472,23.7331413 36.9020678,22.1061884 L38.4060071,20.6022491 L47.1818965,29.3782707 L45.4591783,31.1009889 C44.0035185,32.556781 42.8899155,34.3585982 42.2387376,36.3118675 L41.8997229,37.3287791 C41.3456331,38.991181 40.3977677,40.5248817 39.1585058,41.7640113 L39.1329772,41.7895399 L38.3803462,41.0367766 C37.191877,39.8483074 35.2577872,39.8483074 34.0691858,41.0367766 C33.5251486,41.5808137 33.215763,42.2948212 33.1828272,43.0588276 C32.4190853,43.0917635 31.7049456,43.4011491 31.1609084,43.9451862 C30.6168712,44.4892234 30.3074857,45.2032308 30.2745498,45.967105 C29.5106756,46.0000409 28.7966682,46.3095587 28.252631,46.8535959 C27.6920598,47.4142994 27.3992083,48.1408727 27.3674629,48.8767051 C26.6316305,48.9084505 25.9049249,49.2011698 25.3443536,49.761741 C25.3439568,49.7621378 25.34356,49.7626669 25.3431632,49.7630637 L23.8902811,51.2159458 C23.6892268,51.4171324 23.4219039,51.5277123 23.1376501,51.5277123 C22.8533963,51.5277123 22.5860734,51.4170002 22.3851513,51.2160781 C21.9700799,50.8008744 21.9700799,50.1256229 22.3851513,49.7106838 L27.8539614,44.2418737 C28.2413879,43.854315 28.2413879,43.2262847 27.8539614,42.8388583 C27.466535,42.4515642 26.8383725,42.4515642 26.4510784,42.8388583 L20.9822683,48.3076684 C20.5673292,48.7228721 19.8919453,48.7227398 19.4770062,48.3078007 C19.2758196,48.1066141 19.1652397,47.8392912 19.1652397,47.5550374 C19.1652397,47.2707836 19.2759519,47.0034607 19.4770062,46.8025387 L24.9458163,41.3337285 C25.3332427,40.9461699 25.3332427,40.3181396 24.9458163,39.9307132 C24.5583899,39.5434191 23.9302274,39.5434191 23.5429333,39.9307132 L18.0741232,45.3995233 C17.8530957,45.6208154 17.5472814,45.7331148 17.2347213,45.7078507 C16.9183253,45.6823221 16.6389656,45.5222723 16.4480962,45.257198 C16.1564352,44.8521794 16.2437351,44.2193873 16.6466374,43.816485 L23.112386,37.3507364 C23.4998124,36.9631777 23.4998124,36.3351475 23.112386,35.9477211 C22.7249596,35.5604269 22.0967971,35.5604269 21.7095029,35.9477211 L15.8674196,41.7898044 L15.8417587,41.7641435 C14.6026291,40.5250139 13.6547637,38.9914456 13.1006739,37.329176 L12.7616592,36.3119998 C12.1106136,34.3588627 10.9970106,32.5570456 9.54121854,31.1012535 L7.81850037,29.3785353 L16.5943897,20.6025137 L32.61551,36.623634 C32.6189491,36.6269408 32.6260919,36.6342158 32.6260919,36.6491626 C32.6260919,36.6639771 32.6189491,36.6711198 32.61551,36.6746912 C32.2202796,37.0697894 31.6947606,37.2876424 31.1357766,37.2876424 C30.5767927,37.2876424 30.0512737,37.0699217 29.6560432,36.6745589 L26.1972473,33.2158953 C25.4272886,32.4458043 24.4034987,32.0217384 23.3144985,32.0217384 L20.2297695,32.0217384 C19.6818965,32.0217384 19.2377251,32.4657775 19.2377251,33.0137828 C19.2377251,33.5617881 19.6818965,34.0058272 20.2297695,34.0058272 L23.3144985,34.0058272 C23.8734825,34.0058272 24.3990015,34.2235479 24.794232,34.6189107 L28.2531601,38.0777065 C29.0231188,38.8476653 30.0469087,39.2717312 31.1357766,39.2717312 C32.2247768,39.2717312 33.2485666,38.8476653 34.0182608,38.0777065 C34.3999995,37.6962324 34.6101807,37.1888348 34.6101807,36.6491626 C34.6101807,36.1094904 34.4001318,35.6022251 34.0183931,35.2204864 L17.996876,19.1991015 L18.0225368,19.1734406 C18.404011,18.7918342 18.6141921,18.2844366 18.6141921,17.7448967 C18.6141921,17.2052245 18.404011,16.6979592 18.0224046,16.3163527 L13.35305,11.6468659 L27.4998677,6.5541067 L34.5859748,9.10511582 C35.101441,9.29042972 35.6698164,9.02323909 35.8553948,8.50764055 C36.0409732,7.99217427 35.7735181,7.42393124 35.2580518,7.23822052 L27.8358401,4.56631426 C27.6186485,4.48814116 27.3810869,4.48814116 27.1638954,4.56644653 L27.1638954,4.56644653 Z M38.3803462,17.7195003 L43.7100056,12.3897087 L48.7744584,14.2129541 L48.7744584,28.164802 L38.3803462,17.7706898 C38.3769071,17.7672508 38.3696321,17.7599758 38.3696321,17.745029 C38.3696321,17.7300822 38.3767749,17.7229394 38.3803462,17.7195003 Z M28.5237898,52.9411772 C28.1087184,53.3565131 27.4334669,53.3565131 27.0185278,52.9411772 L26.7472367,52.6698861 C26.3321653,52.2548147 26.3321653,51.5796954 26.7472367,51.1646241 C26.9547724,50.9570884 27.2272539,50.8532544 27.4998677,50.8532544 C27.7724815,50.8532544 28.0450953,50.9569561 28.2524987,51.1646241 L28.5237898,51.4359151 C28.7248442,51.6369695 28.8355563,51.9041601 28.8355563,52.1884139 C28.8355563,52.4726677 28.7248442,52.7401228 28.5237898,52.9411772 Z M35.4720688,42.4397919 C35.6796045,42.2322562 35.9520861,42.1284223 36.2246999,42.1284223 C36.4973137,42.1284223 36.7697952,42.232124 36.9773309,42.4396597 L38.4315357,43.8939967 C38.63259,44.0950511 38.7433022,44.3622417 38.7433022,44.6464955 C38.7433022,44.9307493 38.63259,45.1980722 38.4315357,45.3989942 C38.0164643,45.8143302 37.3412128,45.8143302 36.9262737,45.3989942 L35.4720688,43.9449217 C35.0569975,43.5299826 35.0569975,42.8548633 35.4720688,42.4397919 L35.4720688,42.4397919 Z M32.5637915,45.3480693 C32.7713272,45.1405336 33.0438087,45.0366996 33.3164225,45.0366996 C33.5890363,45.0366996 33.8616501,45.1404013 34.0690535,45.3480693 L35.5232583,46.8021419 C35.9383297,47.2172132 35.9383297,47.8923325 35.5232583,48.3074039 C35.1083192,48.7226075 34.4329354,48.7226075 34.017864,48.3074039 L32.5637915,46.8534636 C32.3626049,46.652277 32.252025,46.3849541 32.252025,46.1007003 C32.252025,45.8164465 32.3627371,45.5491236 32.5637915,45.3480693 Z M29.6555141,48.2563467 C29.8565684,48.0552923 30.1238913,47.9445802 30.4081451,47.9445802 C30.6923989,47.9445802 30.9597218,48.0554246 31.1607761,48.256479 L32.2448823,49.3407174 C32.65916,49.7556565 32.6588955,50.4305112 32.2442209,50.8454503 C31.8290172,51.2603894 31.153898,51.2603894 30.7388266,50.8454503 L29.6552495,49.761741 C29.4541952,49.5606867 29.3436153,49.293496 29.3436153,49.0092422 C29.3436153,48.7249885 29.4544598,48.457401 29.6555141,48.2563467 L29.6555141,48.2563467 Z M16.6195215,17.7195003 C16.6229606,17.7228072 16.6301033,17.7300822 16.6301033,17.7448967 C16.6301033,17.7598435 16.6228283,17.7671185 16.6195215,17.7704253 L6.22527705,28.164802 L6.22527705,14.2130863 L11.2897299,12.389841 L16.6195215,17.7195003 Z" id="Shape"></path>
                    </g>
                </g>
            </g>
        </g>
    </g>
</svg>