<?xml version="1.0" encoding="UTF-8"?>
<svg width="71px" height="61px" viewBox="0 0 71 61" version="1.1" xmlns="http://www.w3.org/2000/svg" xmlns:xlink="http://www.w3.org/1999/xlink">
    <title>diamond</title>
    <g id="Page-1" stroke="none" stroke-width="1" fill="none" fill-rule="evenodd">
        <g id="02-About-Final" transform="translate(-168.000000, -1518.000000)" fill="#FFFFFF" fill-rule="nonzero">
            <g id="EXPERIENCE" transform="translate(0.000000, 1131.000000)">
                <g id="ex--1" transform="translate(118.000000, 342.000000)">
                    <g id="oval+icon" transform="translate(10.500000, 0.000000)">
                        <g id="diamond" transform="translate(40.000000, 45.000000)">
                            <path d="M69.7849851,17.5343806 C57.6679157,2.40479918 58.1847109,2.78383753 57.5377599,2.7220624 L38.5701466,0.234148919 C33.7888343,-0.393055042 30.5410911,0.42213703 28.8826981,0.568187284 C28.3261179,0.641145843 27.9357872,1.13974037 28.0105721,1.68173726 C28.0854937,2.22373414 28.5981873,2.6046364 29.1540839,2.53101216 C30.8359924,2.38083469 33.8524083,1.61410414 38.2986241,2.1969738 L51.3237765,3.90537567 C50.348975,4.09882236 35.9752333,6.95112923 34.9997482,7.14470906 L18.6761302,3.90537567 L24.3184944,3.16527233 C24.8750746,3.09231378 25.2654053,2.59371925 25.1906204,2.05172236 C25.1156988,1.50959234 24.602595,1.12935576 24.0471086,1.20244746 L12.4629671,2.72179613 C12.4613264,2.72192927 12.4596858,2.72219554 12.4580452,2.72246181 L12.4427328,2.72445885 C12.4271469,2.72658903 12.4119711,2.72991743 12.396522,2.73271329 C12.3865415,2.73457719 12.3762877,2.73590855 12.3664439,2.73803873 C12.3581041,2.7397695 12.3497643,2.74150027 12.3415612,2.74336417 C12.3299402,2.74616003 12.3184558,2.74948843 12.3069715,2.75255056 C12.2891981,2.75734346 12.2714247,2.76200322 12.2539248,2.76772807 C12.2466787,2.77012452 12.2398428,2.77305351 12.2325967,2.7755831 C12.2294522,2.77664819 12.2263077,2.77784641 12.2232999,2.77904464 C12.2131827,2.78277245 12.2026554,2.78623398 12.192675,2.79009493 C12.1743547,2.79741741 12.1565814,2.80553871 12.138808,2.81392628 C12.131015,2.81752096 12.1233588,2.82084936 12.1157026,2.82457717 C12.1070893,2.82883752 12.0987495,2.83296474 12.0904097,2.83735823 C12.0823433,2.84161858 12.0746871,2.84641148 12.0666207,2.85107124 C11.6250206,3.1016333 11.8406254,3.1193404 0.215058225,17.5342475 C-0.0266597278,17.8362001 -0.0682220908,18.2466585 0.108691388,18.5886851 C0.518025977,19.3795132 -0.570661841,17.818493 21.8715103,46.8271089 C22.2097513,47.2637951 22.8474055,47.3505998 23.2958415,47.0212212 C23.7441408,46.6918426 23.8332811,46.0708961 23.4951768,45.6342098 L3.78326912,20.192442 L19.7112244,25.0780027 C20.0932154,26.0590823 31.7600714,56.0249465 31.9764965,56.5809226 L26.3638001,49.3368567 C26.0255591,48.9001704 25.3880416,48.8133657 24.9394689,49.1427443 C24.4910329,49.4721229 24.4020293,50.0930695 24.7401336,50.5297557 C30.6172432,58.1135849 31.2227685,58.899487 31.2646043,58.945419 C32.0071214,59.7603448 33.0340125,60.2757145 34.0161968,60.4370754 C34.1615283,60.461173 35.8654485,60.4606404 36.007909,60.4336138 C37.2463033,60.1994275 38.292335,59.5181703 38.7861615,58.8848421 L58.6368383,33.26374 C58.9749426,32.8270537 58.8858023,32.2061072 58.437503,31.8767286 C57.9887935,31.5476162 57.3515496,31.6344209 57.0131718,32.0708409 L38.023,56.5814552 C38.6296191,55.0233639 49.8427071,26.2231059 50.2885455,25.0781358 L66.2166375,20.1925751 L59.8718147,28.3815077 C59.5337103,28.8181939 59.6227139,29.4391405 60.07115,29.7685191 C60.5197227,30.0978977 61.1572401,30.011093 61.4954812,29.5744067 C70.0133047,18.5701791 69.5543414,19.2371908 69.8905317,18.5902827 C70.0682654,18.2479899 70.0271132,17.8367326 69.7849851,17.5343806 Z M34.999885,9.65765212 L47.2688484,23.2874559 L22.7310582,23.2874559 L34.999885,9.65765212 Z M2.61542141,17.7577829 L12.2629482,5.71016805 L18.8036884,22.7234916 L2.61542141,17.7577829 Z M14.1746802,5.03330434 C16.1882673,5.43284565 30.62654,8.29819985 33.0807702,8.78521154 L20.8433887,22.3798674 L14.1746802,5.03330434 Z M35.1122674,58.4713215 L34.887776,58.4713215 L21.9603772,25.2678547 L48.0396662,25.2678547 L35.1122674,58.4713215 Z M49.1563813,22.3797343 L36.9189997,8.78521154 C38.5469045,8.46209034 53.3219144,5.5301681 55.8250897,5.03330434 L49.1563813,22.3797343 Z M51.1960816,22.7232253 L57.7368217,5.70990178 L67.3844852,17.7576498 L51.1960816,22.7232253 Z" id="Shape"></path>
                        </g>
                    </g>
                </g>
            </g>
        </g>
    </g>
</svg>