<?xml version="1.0" encoding="UTF-8"?>
<svg width="84px" height="86px" viewBox="0 0 84 86" version="1.1" xmlns="http://www.w3.org/2000/svg" xmlns:xlink="http://www.w3.org/1999/xlink">
    <title>boss</title>
    <defs>
        <ellipse id="path-1" cx="42" cy="43" rx="42" ry="43"></ellipse>
    </defs>
    <g id="Page-1" stroke="none" stroke-width="1" fill="none" fill-rule="evenodd">
        <g id="01-Home-Final" transform="translate(-409.000000, -1420.000000)">
            <g id="WHAT-WE-DO" transform="translate(0.000000, 801.000000)">
                <g id="service-boxes" transform="translate(210.000000, 584.000000)">
                    <g id="boss" transform="translate(199.000000, 35.000000)">
                        <mask id="mask-2" fill="white">
                            <use xlink:href="#path-1"></use>
                        </mask>
                        <use id="Mask" fill-opacity="0.076109346" fill="#9B1C32" xlink:href="#path-1"></use>
                        <g mask="url(#mask-2)" fill="#9B1C32" fill-rule="nonzero">
                            <g transform="translate(20.000000, 18.000000)">
                                <path d="M35.3571429,38.5916662 L31.8428571,38.5916662 L31.2428571,36.7809519 C33.1771875,35.1044341 34.5216964,32.850818 35.0785714,30.3523805 C35.263125,29.5004609 35.3564732,28.6312644 35.3571429,27.7595234 L35.3571429,22.5202376 C37.7240625,22.5202376 39.6428571,20.601443 39.6428571,18.2345234 C39.6428571,15.8676037 37.7240625,13.9488091 35.3571429,13.9488091 L35.3571429,8.59166622 C35.3571429,4.44952336 31.9992857,1.09166622 27.8571429,1.09166622 L15.1071429,1.09166622 L9.85714286,0.0202376437 C9.54200893,-0.0419052134 9.215625,0.0407287152 8.96785714,0.245237644 C8.713125,0.451889429 8.56700893,0.763675144 8.57142857,1.09166622 L8.57142857,4.30595193 C8.57919643,5.787068 9.1996875,7.19880907 10.2857143,8.20595193 C9.75160714,10.0707734 9.534375,12.012068 9.64285714,13.9488091 C7.2759375,13.9488091 5.35714286,15.8676037 5.35714286,18.2345234 C5.35714286,20.601443 7.2759375,22.5202376 9.64285714,22.5202376 L9.64285714,27.7595234 C9.64419643,28.6276484 9.73767857,29.4932287 9.92142857,30.3416662 C10.4783036,32.8401037 11.8228125,35.0937198 13.7571429,36.7702376 L13.1571429,38.5916662 L9.64285714,38.5916662 C4.3171875,38.5916662 0,42.9088537 0,48.2345234 L0,64.3059519 L2.14285714,64.3059519 L2.14285714,48.2345234 C2.14285714,44.0923805 5.50071429,40.7345234 9.64285714,40.7345234 L13.2214286,40.7345234 L21.5142857,60.4380948 C21.74625,60.9825144 22.3755804,61.2357734 22.9198661,61.003943 C23.1744643,60.8954609 23.3772321,60.692693 23.4857143,60.4380948 L31.7785714,40.7345234 L35.3571429,40.7345234 C39.4992857,40.7345234 42.8571429,44.0923805 42.8571429,48.2345234 L42.8571429,64.3059519 L45,64.3059519 L45,48.2345234 C45,42.9088537 40.6826786,38.5916662 35.3571429,38.5916662 Z M35.3571429,16.0916662 C36.5406696,16.0916662 37.5,17.0509966 37.5,18.2345234 C37.5,19.4180501 36.5406696,20.3773805 35.3571429,20.3773805 L35.3571429,16.0916662 Z M9.64285714,20.3773805 C8.45933036,20.3773805 7.5,19.4180501 7.5,18.2345234 C7.5,17.0509966 8.45933036,16.0916662 9.64285714,16.0916662 L9.64285714,20.3773805 Z M10.7142857,4.30595193 L10.7142857,2.39880907 L14.7857143,3.23452336 L15,3.23452336 L27.8571429,3.23452336 C30.8157589,3.23452336 33.2142857,5.63305014 33.2142857,8.59166622 L33.2142857,13.2738091 C31.7066518,12.2147019 30.8875446,10.4248805 31.0714286,8.59166622 C31.0714286,7.99996979 30.5916964,7.52023764 30,7.52023764 L13.9285714,7.52023764 C12.1533482,7.52023764 10.7142857,6.08117514 10.7142857,4.30595193 Z M20.3571429,15.9630948 L19.4785714,22.9595234 C18.2515179,23.3224698 17.098125,23.8991662 16.0714286,24.6630948 C15.5783036,25.0346126 14.8787946,24.9442109 14.4964286,24.4595234 L11.7857143,21.0738091 L11.7857143,14.5488091 C13.3830804,13.1925144 14.6942411,11.5315323 15.6428571,9.66309479 L28.9285714,9.66309479 C29.1642857,12.5023805 30.3964286,13.7452376 32.3035714,15.3416662 C32.3894196,15.4149251 32.4873214,15.4729162 32.5928571,15.5130948 L33.1714286,15.7488091 L33.1714286,21.1059519 L30.4607143,24.4916662 C30.0755357,24.9447466 29.4042857,25.0198805 28.9285714,24.6630948 C27.0717857,23.2762644 24.8175,22.5247912 22.5,22.5202376 C22.2357589,22.5202376 21.9679018,22.5202376 21.6964286,22.5202376 L22.5,16.2202376 L20.3571429,15.9630948 Z M11.7857143,11.5488091 C11.8329911,10.8041662 11.9476339,10.0654162 12.1285714,9.34166622 C12.4783929,9.465818 12.8416071,9.54858586 13.2107143,9.58809479 C12.7767857,10.2705948 12.3008036,10.9253716 11.7857143,11.5488091 Z M15.0748661,39.6630948 L15.5891518,38.1202376 C16.53375,38.6495234 17.5469196,39.0460859 18.5998661,39.2988091 L16.3498661,42.6630948 L15.0748661,39.6630948 Z M19.0285714,49.0595234 L17.3464286,45.0202376 L19.2857143,42.0952376 L20.2714286,44.0773805 L19.0285714,49.0595234 Z M22.5,57.2559519 L20.4321429,52.3488091 L22.2642857,45.0202376 L22.7357143,45.0202376 L24.5678571,52.3488091 L22.5,57.2559519 Z M20.6785714,40.0488091 L20.9464286,39.6416662 L21.5464286,39.6416662 L23.4535714,39.6416662 L24.0535714,39.6630948 L24.3214286,40.0702376 L22.9071429,42.8773805 L22.0928571,42.8773805 L20.6785714,40.0488091 Z M25.95,49.0488091 L24.7071429,44.0666662 L25.7142857,42.0952376 L27.6535714,45.0202376 L25.95,49.0488091 Z M28.65,42.6630948 L26.4,39.2988091 C27.4550893,39.0325591 28.4683929,38.6215323 29.4107143,38.0773805 L29.925,39.6630948 L28.65,42.6630948 Z M23.4534375,37.5202376 L21.5462946,37.5202376 C16.9581696,37.5643001 12.9744643,34.3691662 12.0212946,29.8809519 L12.0212946,29.8809519 C11.8613839,29.1779609 11.7823661,28.4590323 11.7854861,27.7380948 L11.7854861,24.5238091 L12.8570089,25.8202376 C13.9359375,27.2298359 15.9534375,27.4979609 17.3630357,26.4190323 C17.3717411,26.4123359 17.3804464,26.4056394 17.3891518,26.3988091 C18.5195089,25.5547912 19.8407143,25.0027376 21.2355804,24.7916662 L21.4498661,24.7916662 C21.7970089,24.7279162 22.1476339,24.6849251 22.4998661,24.6630948 C24.3535714,24.6684519 26.1565179,25.2693894 27.6427232,26.3773805 C29.0460268,27.4567109 31.0580357,27.1980948 32.1427232,25.7988091 L33.214246,24.5023805 L33.214246,27.7166662 C33.2173661,28.4376037 33.1383482,29.1565323 32.9784375,29.8595234 C32.0342411,34.3563091 28.048125,37.5621573 23.4534375,37.5202376 Z" id="Shape"></path>
                                <rect id="Rectangle" x="28.9285714" y="52.5202376" width="9.64285714" height="2.14285714"></rect>
                                <circle id="Oval" cx="16.0714286" cy="18.2345234" r="2.14285714"></circle>
                                <circle id="Oval" cx="28.9285714" cy="18.2345234" r="2.14285714"></circle>
                                <path d="M25.2321429,26.9238091 C23.9694643,27.5485859 22.5802232,27.8748359 21.1714286,27.8773805 L19.2857143,27.8773805 L19.2857143,30.0202376 L21.1714286,30.0202376 C22.9161161,30.0199698 24.6366964,29.612693 26.1964286,28.8309519 L25.2321429,26.9238091 Z" id="Path"></path>
                            </g>
                        </g>
                    </g>
                </g>
            </g>
        </g>
    </g>
</svg>