<?xml version="1.0" encoding="UTF-8"?>
<svg width="151px" height="47px" viewBox="0 0 151 47" version="1.1" xmlns="http://www.w3.org/2000/svg" xmlns:xlink="http://www.w3.org/1999/xlink">
    <title>logo</title>
    <g id="Page-1" stroke="none" stroke-width="1" fill="none" fill-rule="evenodd">
        <g id="01-Home-Final" transform="translate(-101.000000, -27.000000)" fill-rule="nonzero">
            <g id="logo" transform="translate(101.000000, 27.000000)">
                <g id="symbols">
                    <polygon id="Path" fill="#9B1C32" points="28.958168 0 28.958168 8.75656552 0 29.3510429 0 20.5970431"></polygon>
                    <polygon id="Path" fill="#9B1C32" points="28.958168 17.4541211 28.958168 26.2081209 0 46.805164 0 38.0485985"></polygon>
                    <polygon id="Path" fill="#ECECEC" points="41.19 0 41.19 8.75656552 12.2354392 29.3510429 12.2354392 20.5970431"></polygon>
                    <polygon id="Path" fill="#EAEAEA" points="41.19 17.4541211 41.19 26.2081209 12.2354392 46.805164 12.2354392 38.0485985"></polygon>
                </g>
                <path d="M61.28,18 C67.352,18 68.576,16.416 68.576,9.6 C68.576,2.904 67.208,1.272 61.256,1.272 L57.656,1.272 L57.656,18 L61.28,18 Z M61.6746545,15.3594301 L60.848,15.36 L60.848,3.912 L61.52,3.912 C64.592,3.912 65.408,4.296 65.408,9.576 C65.408,14.7346667 64.7837778,15.338823 61.6746545,15.3594301 L61.6746545,15.3594301 Z M74.432,18 L74.432,1.272 L71.24,1.272 L71.24,18 L74.432,18 Z M80.912,18 L80.912,11.952 L82.088,11.952 C83.384,11.952 83.96,12.384 84.488,13.992 L85.784,18 L89.144,18 L87.536,13.488 C86.936,11.736 86.264,11.064 85.664,10.68 C87.152,10.032 88.016,8.64 88.016,6.456 C88.016,2.592 86.48,1.272 82.544,1.272 L77.72,1.272 L77.72,18 L80.912,18 Z M82.28,9.312 L80.912,9.312 L80.912,3.912 L82.328,3.912 C84.296,3.912 84.824,4.512 84.824,6.504 C84.824,8.52 84.152,9.312 82.28,9.312 Z M100.352,18 L100.352,15.36 L94.256,15.36 L94.256,10.584 L99.032,10.584 L99.032,8.04 L94.256,8.04 L94.256,3.912 L100.232,3.912 L100.232,1.272 L91.064,1.272 L91.064,18 L100.352,18 Z M108.08,18.216 C109.496,18.216 111.176,17.88 111.992,17.616 L111.536,15.168 C110.552,15.36 109.52,15.576 108.608,15.576 C106.16,15.576 105.368,14.808 105.368,9.696 C105.368,4.44 106.256,3.696 108.584,3.696 C109.52,3.696 110.36,3.816 111.464,4.008 L111.896,1.584 C111.08,1.296 109.496,1.056 108.128,1.056 C103.52,1.056 102.176,3.696 102.176,9.696 C102.176,16.368 103.952,18.216 108.08,18.216 Z M119.792,18 L119.792,3.912 L123.344,3.912 L123.344,1.272 L113.024,1.272 L113.024,3.912 L116.6,3.912 L116.6,18 L119.792,18 Z M130.52,18.288 C135.08,18.288 136.424,15.72 136.424,9.672 C136.424,3.624 135.224,0.984 130.664,0.984 C126.128,0.984 124.76,3.624 124.76,9.672 C124.76,15.72 125.984,18.288 130.52,18.288 Z M130.592,15.648 C128.529116,15.648 127.977415,14.1597144 127.95287,9.97547547 L127.952,9.672 C127.952,5.256 128.48,3.624 130.592,3.624 C132.728,3.624 133.232,5.256 133.232,9.672 C133.232,14.088 132.728,15.648 130.592,15.648 Z M142.28,18 L142.28,11.952 L143.456,11.952 C144.752,11.952 145.328,12.384 145.856,13.992 L147.152,18 L150.512,18 L148.904,13.488 C148.304,11.736 147.632,11.064 147.032,10.68 C148.52,10.032 149.384,8.64 149.384,6.456 C149.384,2.592 147.848,1.272 143.912,1.272 L139.088,1.272 L139.088,18 L142.28,18 Z M143.648,9.312 L142.28,9.312 L142.28,3.912 L143.696,3.912 C145.664,3.912 146.192,4.512 146.192,6.504 C146.192,8.52 145.52,9.312 143.648,9.312 Z M59.456,44 L60.2,40.232 L64.376,40.232 L65.144,44 L68.36,44 L64.76,27.272 L59.936,27.272 L56.312,44 L59.456,44 Z M64.016,37.904 L60.536,37.904 L62.264,29.816 L62.384,29.816 L64.016,37.904 Z M73.976,44 C80.048,44 81.272,42.416 81.272,35.6 C81.272,28.904 79.904,27.272 73.952,27.272 L70.352,27.272 L70.352,44 L73.976,44 Z M74.3706545,41.3594301 L73.544,41.36 L73.544,29.912 L74.216,29.912 C77.288,29.912 78.104,30.296 78.104,35.576 C78.104,40.7346667 77.4797778,41.338823 74.3706545,41.3594301 L74.3706545,41.3594301 Z M90.608,44 L94.184,27.272 L91.016,27.272 L89.336,35.936 C89.048,37.448 88.64,40.088 88.424,41.288 L88.304,41.288 C88.136,40.088 87.728,37.376 87.44,35.888 L85.736,27.272 L82.472,27.272 L86.096,44 L90.608,44 Z M99.248,44 L99.248,27.272 L96.056,27.272 L96.056,44 L99.248,44 Z M106.64,44.216 C110.264,44.216 111.704,42.92 111.704,39.416 C111.704,36.272 110.312,35.312 107.768,34.16 L106.952,33.776 C105.704,33.224 105.008,32.744 105.008,31.472 C105.008,30.128 105.752,29.696 107.144,29.696 C108.08,29.696 109.424,29.888 110.552,30.128 L111.08,27.656 C110.144,27.368 108.512,27.056 106.808,27.056 C103.928,27.056 101.888,28.232 101.888,31.472 C101.888,34.232 103.208,35.36 105.632,36.392 L106.616,36.824 C108.248,37.52 108.584,38.288 108.584,39.44 C108.584,40.976 108.032,41.576 106.16,41.576 C104.696,41.576 103.16,41.168 102.128,40.952 L101.672,43.496 C102.608,43.784 104.648,44.216 106.64,44.216 Z M119.36,44.288 C123.92,44.288 125.264,41.72 125.264,35.672 C125.264,29.624 124.064,26.984 119.504,26.984 C114.968,26.984 113.6,29.624 113.6,35.672 C113.6,41.72 114.824,44.288 119.36,44.288 Z M119.432,41.648 C117.369116,41.648 116.817415,40.1597144 116.79287,35.9754755 L116.792,35.672 C116.792,31.256 117.32,29.624 119.432,29.624 C121.568,29.624 122.072,31.256 122.072,35.672 C122.072,40.088 121.568,41.648 119.432,41.648 Z M131.12,44 L131.12,37.952 L132.296,37.952 C133.592,37.952 134.168,38.384 134.696,39.992 L135.992,44 L139.352,44 L137.744,39.488 C137.144,37.736 136.472,37.064 135.872,36.68 C137.36,36.032 138.224,34.64 138.224,32.456 C138.224,28.592 136.688,27.272 132.752,27.272 L127.928,27.272 L127.928,44 L131.12,44 Z M132.488,35.312 L131.12,35.312 L131.12,29.912 L132.536,29.912 C134.504,29.912 135.032,30.512 135.032,32.504 C135.032,34.52 134.36,35.312 132.488,35.312 Z M145.376,44.216 C149,44.216 150.44,42.92 150.44,39.416 C150.44,36.272 149.048,35.312 146.504,34.16 L145.688,33.776 C144.44,33.224 143.744,32.744 143.744,31.472 C143.744,30.128 144.488,29.696 145.88,29.696 C146.816,29.696 148.16,29.888 149.288,30.128 L149.816,27.656 C148.88,27.368 147.248,27.056 145.544,27.056 C142.664,27.056 140.624,28.232 140.624,31.472 C140.624,34.232 141.944,35.36 144.368,36.392 L145.352,36.824 C146.984,37.52 147.32,38.288 147.32,39.44 C147.32,40.976 146.768,41.576 144.896,41.576 C143.432,41.576 141.896,41.168 140.864,40.952 L140.408,43.496 C141.344,43.784 143.384,44.216 145.376,44.216 Z" id="DIRECTORADVISORS" fill="#FFFFFF"></path>
            </g>
        </g>
    </g>
</svg>